<?xml version="1.0" encoding="utf-8"?>
<!-- Generator: Adobe Illustrator 23.0.0, SVG Export Plug-In . SVG Version: 6.00 Build 0)  -->
<svg version="1.1" id="图层_1" xmlns="http://www.w3.org/2000/svg" xmlns:xlink="http://www.w3.org/1999/xlink" x="0px" y="0px"
	 viewBox="0 0 841.89 595.28" style="enable-background:new 0 0 841.89 595.28;" xml:space="preserve">
<style type="text/css">
	.st0{font-family:'MVBoli';}
	.st1{font-size:15px;}
	.st2{clip-path:url(#SVGID_2_);}
	.st3{fill:#FFFFFF;}
	.st4{font-size:25px;}
	.st5{fill:none;stroke:#000000;stroke-width:4;stroke-miterlimit:10;}
	.st6{fill:none;stroke:#000000;stroke-miterlimit:10;}
</style>
<text transform="matrix(1 0 0 1 385 397.2749)" class="st0 st1">Minecraft</text>
<g>
	<defs>
		<circle id="SVGID_1_" cx="407.04" cy="297.64" r="146.52"/>
	</defs>
	<clipPath id="SVGID_2_">
		<use xlink:href="#SVGID_1_"  style="overflow:visible;"/>
	</clipPath>
	<g class="st2">
		<g>
			<g>
				<path class="st3" d="M111.04,100.68c197.92,0,395.85,0,593.89,0c0,131.85,0,263.74,0,395.8c-197.89,0-395.89,0-593.89,0
					C111.04,364.65,111.04,232.68,111.04,100.68z M382.16,348.88c-15.06,0.92-29.79,1.83-44.51,2.72
					c-28.99,1.75-57.73,5.45-86.02,12.07c-17.06,3.99-33.9,8.77-48.95,18.2c-5.89,3.69-11.09,8.15-12.76,15.32
					c-0.35,1.49,0.44,3.25,0.7,4.89c1.47-0.34,3.1-0.37,4.39-1.05c12.2-6.42,23.91-14,36.59-19.23
					c32.45-13.38,66.76-19.58,101.49-23.2c62.26-6.48,124.17-4.38,185.39,9.49c27.73,6.28,54.66,14.86,78.54,31.04
					c1.17,0.79,2.84,0.85,5.17,1.51c-0.53-2.29-0.43-3.85-1.15-4.68c-4.21-4.81-7.98-10.36-13.08-13.98
					c-11.7-8.28-25.45-12.33-39.15-15.93c-31.21-8.19-63.05-12.43-95.22-14.45c-2-0.13-3.98-0.47-7.08-0.85
					c1.6-0.96,2.1-1.12,2.39-1.47c1.64-1.91,4.12-3.71,4.5-5.87c0.22-1.27-2.7-3.47-4.58-4.65c-4.28-2.67-6.66-7.19-6.09-12.2
					c0.3-2.64,0.63-5.33,0.39-7.95c-1.01-10.78,1.45-20.79,5.98-30.49c4.77-10.22,10.33-20.22,9.08-32.25
					c-0.17-1.65,1.51-4.3,3.07-5.17c5.45-3.05,8.93-7.2,9.74-14.47c-6.5-0.87-10.55-5.27-13.03-11.36c-0.16-0.39-0.75-0.76-1.2-0.84
					c-5.79-1-8.54-4.9-10.62-10.04c-1.83-4.53-3.68-4.26-6.88-0.22c-1.97,2.49-4.18,5.47-6.94,6.52
					c-9.54,3.64-18.18,12.67-13.87,26.09c0.73,2.26,0.05,5.94-1.44,7.78c-4.9,6.03-10.48,11.51-15.8,17.2
					c-6.69,7.17-13.95,13.91-19.95,21.62c-8.97,11.54-16.69,23.8-13.42,39.78c0.32,1.59-2.46,5.19-4.29,5.58
					c-6.55,1.42-13.62,1.91-18.96-3.05c-4.43-4.12-8.09-9.15-11.72-14.06c-6.08-8.23-9.92-18.01-18.66-24.38
					c-7.82-5.69-16.22-8.24-25.72-7.45c-3.54,0.29-5.44,2.52-5.35,5.99c0.09,3.34,2.6,4.39,5.49,4.61c1.82,0.14,3.66,0.13,5.49,0.08
					c7.86-0.21,15.15,1.69,20.16,7.94c5.36,6.69,10.29,13.8,14.73,21.13c9.19,15.2,21.73,22.04,39.48,15.76
					C374.88,342.67,378.35,344.55,382.16,348.88z"/>
				<path d="M382.16,348.88c-3.81-4.32-7.28-6.21-13.7-3.94c-17.75,6.28-30.29-0.56-39.48-15.76c-4.44-7.34-9.37-14.45-14.73-21.13
					c-5.01-6.25-12.3-8.15-20.16-7.94c-1.83,0.05-3.67,0.06-5.49-0.08c-2.89-0.22-5.4-1.27-5.49-4.61c-0.09-3.47,1.82-5.7,5.35-5.99
					c9.5-0.79,17.9,1.76,25.72,7.45c8.74,6.37,12.58,16.15,18.66,24.38c3.63,4.91,7.28,9.94,11.72,14.06
					c5.34,4.96,12.41,4.48,18.96,3.05c1.83-0.4,4.62-4,4.29-5.58c-3.27-15.98,4.45-28.24,13.42-39.78
					c6-7.71,13.25-14.45,19.95-21.62c5.32-5.69,10.89-11.17,15.8-17.2c1.49-1.83,2.16-5.51,1.44-7.78
					c-4.31-13.42,4.33-22.45,13.87-26.09c2.76-1.05,4.97-4.04,6.94-6.52c3.2-4.04,5.05-4.31,6.88,0.22
					c2.08,5.14,4.84,9.04,10.62,10.04c0.44,0.08,1.04,0.45,1.2,0.84c2.48,6.08,6.53,10.49,13.03,11.36
					c-0.8,7.27-4.28,11.42-9.74,14.47c-1.56,0.87-3.24,3.52-3.07,5.17c1.26,12.03-4.3,22.03-9.08,32.25c-4.53,9.7-7,19.7-5.98,30.49
					c0.25,2.62-0.09,5.32-0.39,7.95c-0.57,5.01,1.81,9.53,6.09,12.2c1.89,1.18,4.81,3.39,4.58,4.65c-0.38,2.16-2.86,3.96-4.5,5.87
					c-0.29,0.34-0.8,0.5-2.39,1.47c3.09,0.38,5.08,0.72,7.08,0.85c32.17,2.02,64.01,6.26,95.22,14.45
					c13.7,3.59,27.45,7.65,39.15,15.93c5.11,3.61,8.87,9.16,13.08,13.98c0.73,0.83,0.63,2.39,1.15,4.68c-2.33-0.65-4-0.71-5.17-1.51
					c-23.88-16.17-50.81-24.75-78.54-31.04c-61.22-13.87-123.13-15.97-185.39-9.49c-34.73,3.62-69.04,9.82-101.49,23.2
					c-12.68,5.23-24.39,12.81-36.59,19.23c-1.29,0.68-2.92,0.72-4.39,1.05c-0.26-1.64-1.04-3.39-0.7-4.89
					c1.67-7.17,6.87-11.64,12.76-15.32c15.05-9.43,31.89-14.21,48.95-18.2c28.3-6.62,57.03-10.32,86.02-12.07
					C352.38,350.71,367.1,349.8,382.16,348.88z M430.18,349.24c3.61,0,7.14,0,10.26,0c-3.65-5.24-7.1-10.19-11.05-15.86
					c-1.59,1.94-3.09,3.77-4.72,5.76C432.76,343.31,432.88,343.55,430.18,349.24z"/>
				<path class="st3" d="M430.18,349.24c2.7-5.69,2.58-5.93-5.51-10.11c1.63-1.99,3.13-3.82,4.72-5.76
					c3.95,5.67,7.4,10.62,11.05,15.86C437.31,349.24,433.79,349.24,430.18,349.24z"/>
			</g>
		</g>
		<text transform="matrix(1 0 0 1 350.7073 387.9708)" class="st0 st4">Cat Island</text>
	</g>
</g>
<circle class="st5" cx="407.06" cy="297.62" r="146.54"/>
<line class="st6" x1="316.03" y1="182.78" x2="316.03" y2="182.78"/>
</svg>
